<svg width="13" height="13" viewBox="0 0 13 13" fill="none" xmlns="http://www.w3.org/2000/svg">
<path d="M5.48 5.18617V6.4135H4V8.02436H5.48V12C5.66667 12 5.82444 12 5.94444 12C6.43707 12 6.77778 12 7.32 12V8.02436H9V6.4135H7.32V5.37794C7.32 4.91769 7.56 4.4958 8.28 4.4958H9V3C9 3 8.32 3 7.68 3C6.36 3 5.48 3.76708 5.48 5.18617Z" fill="white"/>
<path d="M6.5 13C2.94048 13 0 10.0595 0 6.5C0 2.94048 2.94048 0 6.5 0C10.0595 0 13 2.94048 13 6.5C13 10.0595 10.0595 13 6.5 13ZM6.5 1.08333C3.55952 1.08333 1.08333 3.55952 1.08333 6.5C1.08333 9.44048 3.55952 11.9167 6.5 11.9167C9.44048 11.9167 11.9167 9.44048 11.9167 6.5C11.9167 3.55952 9.44048 1.08333 6.5 1.08333Z" fill="white"/>
</svg>
