<svg width="13" height="14" viewBox="0 0 13 14" fill="none" xmlns="http://www.w3.org/2000/svg">
<path d="M9.93934 2.55054C9.4806 2.55054 9.17478 2.85636 9.17478 3.3151C9.17478 3.77384 9.4806 4.07967 9.93934 4.07967C10.3981 4.07967 10.7039 3.77384 10.7039 3.3151C10.7039 2.85636 10.3981 2.55054 9.93934 2.55054Z" fill="white"/>
<path d="M6.57525 3.54419C4.81675 3.54419 3.36408 4.99686 3.36408 6.75536C3.36408 8.51386 4.81675 9.96653 6.57525 9.96653C8.33375 9.96653 9.78642 8.51386 9.78642 6.75536C9.78642 4.99686 8.33375 3.54419 6.57525 3.54419ZM6.57525 8.81968C5.42841 8.81968 4.51093 7.90221 4.51093 6.75536C4.51093 5.60851 5.42841 4.69104 6.57525 4.69104C7.7221 4.69104 8.63958 5.60851 8.63958 6.75536C8.63958 7.90221 7.7221 8.81968 6.57525 8.81968Z" fill="white"/>
<path d="M9.09831 13.3309H3.89928C1.7585 13.3309 0 11.5724 0 9.43157V4.23253C0 2.09175 1.7585 0.333252 3.89928 0.333252H9.09831C11.2391 0.333252 12.9976 2.09175 12.9976 4.23253V9.35512C13.0741 11.5724 11.3156 13.3309 9.09831 13.3309ZM3.89928 1.40364C2.37015 1.40364 1.2233 2.62695 1.2233 4.07962V9.35512C1.2233 10.8842 2.44661 12.0311 3.89928 12.0311H9.09831C10.6274 12.0311 11.7743 10.8078 11.7743 9.35512V4.15608C11.7743 2.62695 10.551 1.4801 9.09831 1.4801H3.89928V1.40364Z" fill="white"/>
</svg>
