<svg width="13" height="12" viewBox="0 0 13 12" fill="none" xmlns="http://www.w3.org/2000/svg">
<path d="M12.8365 2.30861C12.4277 2.47506 11.9371 2.64151 11.5283 2.72474C11.7736 2.72474 12.0189 2.30861 12.1824 2.14215C12.3459 1.89247 12.5094 1.6428 12.5912 1.30989V1.22667H12.5094C12.0189 1.47634 11.5283 1.72602 10.956 1.80925C10.8742 1.80925 10.8742 1.80925 10.8742 1.80925C10.7924 1.72602 10.7925 1.72602 10.7107 1.6428C10.4654 1.47634 10.2201 1.30989 9.97483 1.14344C9.64779 0.976986 9.23899 0.89376 8.83019 0.976986C8.42138 0.976986 8.09434 1.14344 7.76729 1.30989C7.44025 1.47634 7.11321 1.72602 6.86793 2.05893C6.62265 2.39183 6.45912 2.72474 6.37736 3.14087C6.2956 3.557 6.2956 3.88991 6.37736 4.30604C6.37736 4.38926 6.37735 4.38926 6.29559 4.38926C4.16981 4.05636 2.37107 3.30732 0.899376 1.6428C0.817615 1.55957 0.817617 1.55957 0.735856 1.6428C0.0817684 2.64151 0.408805 4.13958 1.22641 4.88862C1.30818 4.97185 1.4717 5.05507 1.55347 5.22153C1.4717 5.22153 0.981137 5.1383 0.490571 4.88862C0.40881 4.88862 0.408805 4.88862 0.408805 4.97185C0.408805 5.05507 0.408805 5.1383 0.408805 5.30475C0.490566 6.30347 1.22642 7.21896 2.12579 7.55186C2.20755 7.63509 2.37107 7.63509 2.45283 7.63509C2.20755 7.71831 2.04403 7.71831 1.4717 7.63509C1.38994 7.63509 1.38993 7.63509 1.38993 7.71832C1.79874 8.96671 2.77988 9.29961 3.51572 9.54929C3.59748 9.54929 3.67924 9.54929 3.84276 9.54929C3.59748 9.8822 2.77988 10.2151 2.37108 10.2983C1.63523 10.548 0.899368 10.6312 0.163519 10.548C0.0817585 10.548 0 10.548 0 10.548V10.6312C0.163522 10.7145 0.327049 10.7977 0.490571 10.8809C0.981137 11.1306 1.4717 11.3803 1.96227 11.4635C4.66038 12.2125 7.60377 11.6299 9.6478 9.63252C11.2013 8.05122 11.7736 5.88734 11.7736 3.64023C11.7736 3.557 11.8553 3.47377 11.9371 3.47377C12.3459 3.14087 12.673 2.80796 13 2.39183C12.8365 2.47506 12.8365 2.39183 12.8365 2.30861Z" fill="white"/>
</svg>
