<svg width="253" height="67" viewBox="0 0 253 67" fill="none" xmlns="http://www.w3.org/2000/svg">
    <g clip-path="url(#clip0)">
    <path d="M62.0342 54.1116C61.1591 53.1277 55.714 43.5844 53.7694 39.9442L53.4777 39.4523L52.9915 39.5507C52.9915 39.5507 52.797 39.5506 52.6026 39.649C52.4081 38.4684 52.3109 37.091 52.3109 36.0088C55.2279 36.8943 57.5614 36.9926 60.5757 37.4846C60.0895 35.812 59.9923 35.3201 59.4089 33.6476C58.2421 30.1057 57.6587 26.6623 58.0476 22.9236C58.1448 21.743 58.0476 20.8576 58.1448 19.5786C58.3393 16.7254 57.6587 13.5771 56.103 11.1175C54.5472 8.65785 52.5053 6.29661 50.1717 4.62407C48.7133 3.54184 47.7409 1.67253 47.4492 -0.196777C45.699 0.885455 43.171 1.18061 41.1291 0.983839C39.0872 0.78707 37.0453 0.885455 35.0034 0.983839C31.6975 1.08222 28.5861 2.75476 26.1552 4.91923C23.7244 7.18208 21.9742 10.0352 20.5157 13.0852C20.1268 13.8722 19.7379 14.7577 19.1545 15.5448C17.9877 17.0205 16.2375 18.3979 14.5845 19.2834C13.126 20.0705 8.84778 22.8252 8.84778 22.8252C8.84778 22.8252 13.2233 24.9897 14.6818 25.4816C15.7513 25.8752 17.1126 26.3671 18.2794 26.5639C18.3766 26.5639 18.3766 26.5639 18.4738 26.5639C18.1821 28.0396 17.8904 29.8106 17.696 30.696C17.4043 32.4669 16.7236 35.7136 16.2375 37.4846C16.1402 37.8781 16.2375 38.37 16.5292 38.6652C16.8209 38.9603 17.2098 39.1571 17.5987 39.1571C18.2794 39.1571 19.2517 39.1571 19.9323 39.1571C19.8351 40.5345 19.8351 42.3054 19.8351 42.9941C13.7094 43.978 12.0565 53.1277 9.43117 53.1277C7.09759 53.1277 7.29205 47.815 7.29205 47.815H-0.000414327C-0.000414327 47.815 -0.778277 57.7518 7.19482 57.7518C13.6122 57.7518 13.2233 45.7489 20.0296 44.9618C20.0296 46.6343 20.0296 49.094 20.224 50.1762C20.3213 50.8649 20.7102 51.4552 21.1964 51.8487C21.877 52.3407 22.8493 52.5374 24.2106 52.5374C25.1829 52.5374 26.4469 52.439 27.8082 52.1439C28.0027 52.1439 28.1971 52.0455 28.3916 51.9471C23.0438 56.9647 20.224 62.0807 19.4462 65.2291L19.1545 66.7048L20.4185 66.0161C24.8912 63.8517 56.9781 55.9809 61.6452 54.8987L62.7148 54.6035L62.0342 54.1116ZM27.6137 50.9633C24.1133 51.652 22.6548 51.2584 22.0714 50.8649C21.7798 50.6681 21.6825 50.4714 21.5853 50.0778C21.2936 48.4053 21.3908 43.486 21.3908 43.3877C21.3908 43.3877 21.3908 40.0426 21.5853 38.6652L21.6825 37.8781H20.9047C20.224 37.8781 18.7655 37.8781 17.696 37.8781C18.1821 36.1072 18.96 32.7621 19.1545 30.8928C19.2517 29.9089 19.6406 28.0396 19.9323 26.4655C21.0019 26.2687 22.1687 25.9736 23.0438 25.7768C27.0303 24.7929 29.7528 21.1527 33.8366 21.4479C35.5868 21.5462 37.1425 22.1366 38.1149 23.7107C39.0872 25.1865 38.8927 27.4493 38.6983 28.5316C40.0595 27.9413 42.0042 27.6461 43.4627 28.2364C44.9212 28.8267 46.088 30.4009 46.1852 32.0734C46.2824 33.8443 45.4073 35.6153 44.2405 36.8943C44.0461 37.091 43.8516 37.3862 43.7544 37.6813C43.7544 38.1733 43.7544 38.5668 43.7544 38.9603C43.8516 40.141 43.8516 40.928 43.9488 42.0103C43.6572 42.1087 43.2682 42.3054 42.7821 42.5022C38.99 44.2731 35.7813 46.3392 32.9615 48.4053C30.6279 49.6843 28.6833 50.7665 27.6137 50.9633ZM21.1964 64.442C22.6548 60.605 26.7386 54.7019 33.7394 49.3891C35.1007 48.602 36.5591 47.6182 38.0176 46.7327C39.6706 45.6505 41.7125 44.4699 42.9765 43.6828C43.0737 43.6828 43.0738 43.5844 43.171 43.5844C43.4627 43.3877 43.9488 43.2893 44.3378 43.0925H44.435H44.5322C47.1575 42.207 51.2413 41.2232 52.6998 40.928C53.9638 43.0925 58.4365 51.16 60.284 54.0132C54.9362 55.3906 28.6833 61.7856 21.1964 64.442Z" fill="white"/>
    <path d="M74.5776 12.3965C76.6195 12.0029 78.9531 11.8062 81.5784 11.8062C86.3428 11.8062 89.7459 13.0852 91.9823 15.2496C94.3159 17.5125 95.5799 20.7592 95.5799 25.1865C95.5799 29.7122 94.2187 33.4508 91.8851 36.0088C89.4542 38.5668 85.4677 40.0426 80.5088 40.0426C78.078 40.0426 76.1333 39.9442 74.4804 39.7474V12.3965H74.5776ZM77.8835 36.9926C78.7586 37.091 79.9254 37.1894 81.1894 37.1894C88.2874 37.1894 92.0795 32.8605 92.0795 25.3832C92.0795 18.7915 88.6764 14.6593 81.6756 14.6593C79.9254 14.6593 78.6614 14.8561 77.7863 15.0528V36.9926H77.8835Z" fill="white"/>
    <path d="M101.9 30.3025C101.997 35.3201 105.011 37.3862 108.706 37.3862C111.332 37.3862 112.887 36.8943 114.151 36.304L114.832 38.9604C113.568 39.5507 111.332 40.2394 108.22 40.2394C102.095 40.2394 98.4969 36.1072 98.4969 30.0074C98.4969 23.9075 101.997 19.0867 107.831 19.0867C114.346 19.0867 115.999 24.8914 115.999 28.63C115.999 29.4171 115.999 29.909 115.902 30.3025H101.9ZM112.498 27.6461C112.498 25.3833 111.526 21.6447 107.54 21.6447C103.845 21.6447 102.289 25.0881 101.997 27.6461H112.498Z" fill="white"/>
    <path d="M125.917 14.1675V19.0867H131.653V21.9399H125.917V33.0573C125.917 35.6153 126.597 37.0911 128.445 37.0911C129.32 37.0911 130.875 36.9927 131.362 36.796L131.556 39.6491C130.875 39.9443 128.931 40.141 127.667 40.141C126.111 40.141 124.847 39.5507 124.069 38.5669C123.194 37.3863 122.805 35.6153 122.805 33.1557V22.0383H119.985V19.1851H122.805V14.2659H125.917V14.1675Z" fill="white"/>
    <path d="M137.973 30.2041C138.071 35.2218 141.182 37.2878 144.78 37.2878C147.405 37.2878 148.961 36.7959 150.322 36.2056L151.003 38.862C149.739 39.4523 147.502 40.141 144.294 40.141C138.168 40.141 134.473 35.9104 134.473 29.8106C134.473 23.6124 137.973 18.7915 143.807 18.7915C150.322 18.7915 152.072 24.5962 152.072 28.4332C152.072 29.2203 152.072 29.7122 151.975 30.2041H137.973ZM148.572 27.5477C148.572 25.1865 147.6 21.5463 143.516 21.5463C139.821 21.5463 138.265 24.9897 137.973 27.5477H148.572Z" fill="white"/>
    <path d="M171.422 39.0585C170.449 39.5504 168.407 40.2391 165.685 40.2391C159.656 40.2391 155.767 36.0086 155.767 29.8103C155.767 23.5137 159.948 18.8896 166.463 18.8896C168.602 18.8896 170.546 19.48 171.519 19.9719L170.741 22.825C169.866 22.3331 168.505 21.8412 166.56 21.8412C161.99 21.8412 159.462 25.383 159.462 29.6136C159.462 34.336 162.476 37.2876 166.365 37.2876C168.407 37.2876 169.769 36.7957 170.838 36.3037L171.422 39.0585Z" fill="white"/>
    <path d="M180.853 14.1675V19.0867H193.493V21.9399H180.853V33.0573C180.853 35.6153 181.534 37.0911 183.381 37.0911C184.256 37.0911 185.812 36.9927 186.298 36.796L186.493 39.6491C185.812 39.9443 183.867 40.141 182.603 40.141C181.048 40.141 179.784 39.5507 179.006 38.5669C178.131 37.3863 177.742 35.6153 177.742 33.1557V22.0383H174.922V19.1851H177.742V14.2659H180.853V14.1675Z" fill="white"/>
    <path d="M194.174 13.2819C194.174 14.5609 193.493 15.5447 192.229 15.5447C191.16 15.5447 190.382 14.5609 190.382 13.2819C190.382 12.0029 191.16 11.019 192.229 11.019C193.396 11.019 194.174 12.0029 194.174 13.2819ZM190.771 39.7474V19.0866H193.785V39.7474H190.771Z" fill="white"/>
    <path d="M201.175 19.2834L204.87 30.7945C205.453 32.6638 206.036 34.4347 206.425 36.1072H206.523C206.912 34.4347 207.495 32.7622 208.078 30.7945L211.773 19.2834H215.371L207.981 39.7475H204.675L197.48 19.2834H201.175Z" fill="white"/>
    <path d="M220.719 30.2041C220.816 35.2218 223.927 37.2878 227.622 37.2878C230.248 37.2878 231.803 36.7959 233.164 36.2056L233.845 38.862C232.581 39.4523 230.345 40.141 227.136 40.141C221.01 40.141 217.315 35.9104 217.315 29.8106C217.315 23.6124 220.913 18.7915 226.747 18.7915C233.359 18.7915 235.012 24.5962 235.012 28.4332C235.012 29.2203 235.012 29.7122 234.915 30.2041H220.719ZM231.317 27.5477C231.317 25.1865 230.345 21.5463 226.261 21.5463C222.566 21.5463 221.01 24.9897 220.719 27.5477H231.317Z" fill="white"/>
    <path d="M240.36 36.0086C241.526 36.6973 243.471 37.4844 245.416 37.4844C248.138 37.4844 249.402 36.2054 249.402 34.4344C249.402 32.6635 248.333 31.6797 245.61 30.6958C241.818 29.3184 240.068 27.3507 240.068 24.8911C240.068 21.546 242.791 18.8896 247.263 18.8896C249.402 18.8896 251.25 19.48 252.319 20.1686L251.444 22.9234C250.666 22.4315 249.111 21.7428 247.166 21.7428C244.93 21.7428 243.763 23.0218 243.763 24.4976C243.763 26.1701 244.93 26.9572 247.652 28.0394C251.25 29.3184 253.097 31.0894 253.097 34.1393C253.097 37.7795 250.18 40.3375 245.416 40.3375C243.179 40.3375 241.04 39.7472 239.582 38.8617L240.36 36.0086Z" fill="white"/>
    <path d="M78.5642 49.7827V50.9633H75.9389V52.144C76.1333 52.144 76.425 52.144 76.6195 52.144C77.2029 52.144 77.8835 52.3407 78.2725 52.6359C78.6614 52.931 78.9531 53.5213 78.9531 54.21C78.9531 54.8003 78.7586 55.3906 78.3697 55.6858C77.7863 56.2761 76.814 56.4729 75.9389 56.4729C75.2582 56.4729 74.7721 56.3745 74.4804 56.3745V49.7827H78.5642ZM75.9389 55.2923C76.1333 55.2923 76.2306 55.2923 76.425 55.2923C76.7167 55.2923 77.1057 55.1939 77.3001 54.9971C77.4946 54.8003 77.5918 54.5052 77.5918 54.21C77.5918 53.9149 77.4946 53.6197 77.3001 53.423C77.1057 53.2262 76.7167 53.1278 76.425 53.1278C76.2306 53.1278 76.1333 53.1278 75.9389 53.1278V55.2923Z" fill="white"/>
    <path d="M81.5784 49.7825V52.3405H82.259C82.4535 50.7663 83.4258 49.6841 84.8843 49.6841C86.5373 49.6841 87.5096 51.1599 87.5096 53.0292C87.5096 55.1936 86.44 56.4726 84.7871 56.4726C83.3286 56.4726 82.3562 55.292 82.259 53.6195H81.5784V56.3742H80.2171V49.7825H81.5784ZM86.1483 53.0292C86.1483 51.8485 85.6622 50.7663 84.8843 50.7663C84.0092 50.7663 83.6203 51.7502 83.6203 53.0292C83.6203 54.3082 84.1064 55.292 84.8843 55.292C85.7594 55.292 86.1483 54.3082 86.1483 53.0292Z" fill="white"/>
    <path d="M88.7736 49.8811C89.1625 49.7827 89.7459 49.7827 90.621 49.7827C91.4961 49.7827 92.0795 49.9795 92.4684 50.2746C92.8574 50.5698 93.1491 51.1601 93.1491 51.8488C93.1491 52.5375 92.9546 53.0294 92.5657 53.423C92.0795 53.9149 91.3989 54.1116 90.621 54.1116C90.4265 54.1116 90.3293 54.1116 90.1348 54.1116V56.4729H88.7736V49.8811ZM90.1348 52.8326C90.2321 52.8326 90.4265 52.8326 90.621 52.8326C91.3016 52.8326 91.7878 52.4391 91.7878 51.7504C91.7878 51.1601 91.3989 50.7666 90.7183 50.7666C90.4266 50.7666 90.2321 50.7666 90.1348 50.7666V52.8326Z" fill="white"/>
    <path d="M99.7609 53.0292C99.7609 55.1936 98.5941 56.4726 96.8439 56.4726C95.0937 56.4726 94.0242 54.9969 94.0242 53.1275C94.0242 51.1599 95.191 49.6841 96.9411 49.6841C98.6913 49.6841 99.7609 51.1599 99.7609 53.0292ZM95.3854 53.1275C95.3854 54.4065 95.9688 55.3904 96.8439 55.3904C97.719 55.3904 98.3024 54.4065 98.3024 53.1275C98.3024 51.9469 97.8162 50.8647 96.8439 50.8647C95.9688 50.8647 95.3854 51.8485 95.3854 53.1275Z" fill="white"/>
    <path d="M104.136 49.7827L105.595 52.5375H105.692V49.7827H106.956V52.5375H107.053L108.512 49.7827H110.068L108.026 52.7343C108.804 52.8326 109.192 53.5213 109.484 54.3084C109.679 54.9971 109.873 55.6858 110.068 56.3745H108.901C108.706 55.8826 108.609 55.3906 108.512 54.8987C108.317 54.21 108.026 53.6197 107.345 53.6197H107.151V56.3745H105.887V53.6197H105.692C105.011 53.6197 104.72 54.21 104.525 54.8987C104.428 55.3906 104.331 55.8826 104.136 56.3745H102.775C103.067 55.6858 103.164 54.9971 103.359 54.4068C103.65 53.5213 104.039 52.931 104.817 52.7343L102.775 49.7827H104.136Z" fill="white"/>
    <path d="M112.304 49.7827L113.179 52.144C113.374 52.6359 113.471 53.0294 113.568 53.423C113.665 53.1278 113.762 52.7343 113.86 52.144L114.54 49.7827H115.999L114.832 53.0294C114.443 54.0133 114.151 55.0955 113.665 55.6858C113.276 56.1777 112.79 56.5713 112.109 56.5713C111.818 56.5713 111.623 56.5713 111.429 56.4729L111.526 55.2923C111.623 55.2923 111.818 55.3907 112.012 55.3907C112.401 55.3907 112.693 55.0955 112.79 54.8003C112.79 54.702 112.79 54.6036 112.79 54.5052L110.748 49.8811H112.304V49.7827Z" fill="white"/>
    <path d="M116.874 49.8811C117.263 49.7827 117.846 49.7827 118.721 49.7827C119.596 49.7827 120.18 49.9795 120.569 50.2746C120.958 50.5698 121.249 51.1601 121.249 51.8488C121.249 52.5375 121.055 53.0294 120.666 53.423C120.18 53.9149 119.499 54.1116 118.721 54.1116C118.527 54.1116 118.43 54.1116 118.235 54.1116V56.4729H116.874V49.8811ZM118.235 52.8326C118.332 52.8326 118.527 52.8326 118.721 52.8326C119.402 52.8326 119.888 52.4391 119.888 51.7504C119.888 51.1601 119.499 50.7666 118.819 50.7666C118.527 50.7666 118.332 50.7666 118.235 50.7666V52.8326Z" fill="white"/>
    <path d="M123.777 49.7827V52.3407H126.014V49.7827H127.375V56.3745H126.014V53.6197H123.777V56.3745H122.416V49.7827H123.777Z" fill="white"/>
    <path d="M130.292 54.702L129.903 56.3745H128.542L130.389 49.7827H132.139L133.987 56.3745H132.528L132.042 54.702H130.292ZM131.751 53.6197L131.362 52.2423C131.264 51.8488 131.167 51.3569 131.07 50.9633C130.973 51.3569 130.875 51.8488 130.778 52.2423L130.389 53.6197H131.751Z" fill="white"/>
    <path d="M139.724 49.7827V56.3745H138.362V50.9633H137.001V52.5375C137.001 54.21 136.807 55.5874 135.932 56.1777C135.64 56.3745 135.251 56.4729 134.765 56.4729L134.57 55.2923C134.862 55.2923 135.056 55.0955 135.251 54.8987C135.64 54.5052 135.737 53.6197 135.737 52.6359V49.7827H139.724Z" fill="white"/>
    <path d="M142.641 49.7827V56.3745H141.279V49.7827H142.641Z" fill="white"/>
    <path d="M148.475 56.1777C148.28 56.2761 147.697 56.4729 146.919 56.4729C144.877 56.4729 143.807 54.9971 143.807 53.1278C143.807 50.8649 145.266 49.5859 147.113 49.5859C147.794 49.5859 148.377 49.6843 148.572 49.8811L148.28 51.0617C147.988 50.9633 147.599 50.7666 147.113 50.7666C146.044 50.7666 145.169 51.4552 145.169 52.931C145.169 54.21 145.849 55.0955 147.113 55.0955C147.502 55.0955 147.988 54.9971 148.28 54.8987L148.475 56.1777Z" fill="white"/>
    <path d="M151.1 51.0617H149.447V49.7827H154.017V51.0617H152.364V56.4729H151.003V51.0617H151.1Z" fill="white"/>
    <path d="M159.267 56.1777C159.073 56.2761 158.49 56.4729 157.712 56.4729C155.67 56.4729 154.6 54.9971 154.6 53.1278C154.6 50.8649 156.059 49.5859 157.906 49.5859C158.587 49.5859 159.17 49.6843 159.365 49.8811L159.073 51.0617C158.781 50.9633 158.392 50.7666 157.906 50.7666C156.837 50.7666 155.962 51.4552 155.962 52.931C155.962 54.21 156.642 55.0955 157.906 55.0955C158.295 55.0955 158.781 54.9971 159.073 54.8987L159.267 56.1777Z" fill="white"/>
    <path d="M161.795 49.7827V52.0456C161.99 52.0456 162.282 51.9472 162.476 51.9472C163.74 51.9472 164.81 52.6359 164.81 54.1116C164.81 54.702 164.615 55.1939 164.324 55.5874C163.74 56.2761 162.768 56.4729 161.795 56.4729C161.115 56.4729 160.629 56.3745 160.337 56.3745V49.7827H161.795ZM161.795 55.2923C161.99 55.2923 162.087 55.2923 162.282 55.2923C162.962 55.2923 163.448 54.8987 163.448 54.21C163.448 53.423 162.962 53.1278 162.282 53.1278C162.087 53.1278 161.893 53.1278 161.795 53.1278V55.2923Z" fill="white"/>
    <path d="M167.532 49.7827V52.5375H167.629L169.282 49.7827H170.935L168.894 52.7343C169.671 52.931 169.963 53.5213 170.255 54.3084C170.449 54.9971 170.644 55.6858 170.935 56.3745H169.477C169.282 55.8826 169.185 55.3906 168.991 54.8987C168.796 54.1116 168.505 53.6197 167.824 53.6197H167.532V56.3745H166.171V49.7827H167.532Z" fill="white"/>
    <path d="M173.172 49.7827V51.7504C173.172 52.8326 173.172 53.8165 173.075 54.702C173.366 53.9149 173.755 53.0294 174.144 52.3407L175.408 49.7827H176.769V56.3745H175.505V54.4068C175.505 53.423 175.505 52.4391 175.603 51.652C175.311 52.4391 174.922 53.3246 174.63 54.0133L173.463 56.3745H171.908V49.7827H173.172Z" fill="white"/>
    <path d="M181.534 56.3745L180.95 55.1939C180.756 54.702 180.561 54.4068 180.464 54.0133C180.367 54.4068 180.173 54.702 179.978 55.1939L179.492 56.3745H177.936L179.686 53.0294L178.033 49.7827H179.589L180.075 50.9633C180.27 51.3569 180.367 51.652 180.561 52.0456C180.659 51.652 180.853 51.3569 180.95 50.9633L181.437 49.7827H182.992L181.339 53.0294L183.089 56.3745H181.534Z" fill="white"/>
    <path d="M186.298 49.8811C186.687 49.7827 187.27 49.7827 188.146 49.7827C189.021 49.7827 189.604 49.9795 189.993 50.2746C190.382 50.5698 190.674 51.1601 190.674 51.8488C190.674 52.5375 190.479 53.0294 190.09 53.423C189.604 53.9149 188.923 54.1116 188.146 54.1116C187.951 54.1116 187.854 54.1116 187.659 54.1116V56.4729H186.298V49.8811ZM187.659 52.8326C187.757 52.8326 187.951 52.8326 188.146 52.8326C188.826 52.8326 189.312 52.4391 189.312 51.7504C189.312 51.1601 188.923 50.7666 188.243 50.7666C187.951 50.7666 187.757 50.7666 187.659 50.7666V52.8326Z" fill="white"/>
    <path d="M197.286 53.0292C197.286 55.1936 196.119 56.4726 194.369 56.4726C192.618 56.4726 191.549 54.9969 191.549 53.1275C191.549 51.1599 192.716 49.6841 194.466 49.6841C196.216 49.6841 197.286 51.1599 197.286 53.0292ZM192.91 53.1275C192.91 54.4065 193.493 55.3904 194.369 55.3904C195.244 55.3904 195.827 54.4065 195.827 53.1275C195.827 51.9469 195.341 50.8647 194.369 50.8647C193.493 50.8647 192.91 51.8485 192.91 53.1275Z" fill="white"/>
    <path d="M198.161 50.176C198.55 49.8809 199.23 49.6841 200.008 49.6841C201.272 49.6841 202.05 50.3728 202.05 51.3566C202.05 52.1437 201.564 52.734 200.883 52.9308C201.661 53.0292 202.244 53.6195 202.244 54.5049C202.244 55.9807 200.883 56.4726 199.814 56.4726C199.23 56.4726 198.55 56.2759 198.063 55.9807L198.355 54.8001C198.647 54.9969 199.23 55.1936 199.814 55.1936C200.494 55.1936 200.883 54.8985 200.883 54.3082C200.883 53.6195 200.202 53.4227 199.619 53.4227H199.036V52.3405H199.619C200.202 52.3405 200.689 52.0453 200.689 51.5534C200.689 51.1599 200.397 50.8647 199.814 50.8647C199.327 50.8647 198.841 51.0615 198.452 51.2582L198.161 50.176Z" fill="white"/>
    <path d="M207.884 56.1777C207.689 56.2761 207.106 56.4729 206.328 56.4729C204.286 56.4729 203.217 54.9971 203.217 53.1278C203.217 50.8649 204.675 49.5859 206.523 49.5859C207.203 49.5859 207.787 49.6843 207.981 49.8811L207.689 51.0617C207.398 50.9633 207.009 50.7666 206.523 50.7666C205.453 50.7666 204.578 51.4552 204.578 52.931C204.578 54.21 205.259 55.0955 206.523 55.0955C206.912 55.0955 207.398 54.9971 207.689 54.8987L207.884 56.1777Z" fill="white"/>
    <path d="M213.912 49.7827V56.3745H212.551V50.9633H211.19V52.5375C211.19 54.21 210.995 55.5874 210.12 56.1777C209.829 56.3745 209.44 56.4729 208.953 56.4729L208.759 55.2923C209.051 55.2923 209.245 55.0955 209.44 54.8987C209.829 54.5052 209.926 53.6197 209.926 52.6359V49.7827H213.912Z" fill="white"/>
    <path d="M216.732 49.7827V56.3745H215.371V49.7827H216.732Z" fill="white"/>
    <path d="M223.052 49.7827V55.1939H223.636L223.538 58.047H222.566L222.469 56.3745H218.968L218.871 58.047H217.802L217.704 55.1939H218.191C218.385 54.7019 218.58 54.21 218.774 53.7181C218.968 53.0294 218.968 52.3407 218.968 51.5536V49.7827H223.052ZM220.33 51.8488C220.33 52.6359 220.232 53.3246 220.038 54.0133C219.941 54.4068 219.746 54.8003 219.649 55.0955H221.594V50.8649H220.232V51.8488H220.33Z" fill="white"/>
    <path d="M225.58 49.7827L226.455 52.144C226.65 52.6359 226.747 53.0294 226.844 53.423C226.942 53.1278 227.039 52.7343 227.136 52.144L227.817 49.7827H229.275L228.108 53.0294C227.719 54.0133 227.428 55.0955 226.942 55.6858C226.553 56.1777 226.066 56.5713 225.386 56.5713C225.094 56.5713 224.9 56.5713 224.705 56.4729L224.802 55.2923C224.9 55.2923 225.094 55.3907 225.289 55.3907C225.678 55.3907 225.969 55.0955 226.066 54.8003C226.066 54.702 226.066 54.6036 226.066 54.5052L224.025 49.8811H225.58V49.7827Z" fill="white"/>
    <path d="M230.247 49.8811C230.636 49.7827 231.317 49.7827 231.998 49.7827C232.776 49.7827 233.359 49.8811 233.748 50.1763C234.137 50.4714 234.429 50.8649 234.429 51.4553C234.429 52.0456 234.137 52.5375 233.456 52.8326C234.137 53.0294 234.623 53.6197 234.623 54.4068C234.623 54.9971 234.331 55.489 234.04 55.7842C233.651 56.1777 232.873 56.3745 231.706 56.3745C231.025 56.3745 230.539 56.2761 230.247 56.2761V49.8811ZM231.511 52.4391H231.998C232.678 52.4391 233.067 52.144 233.067 51.652C233.067 51.1601 232.678 50.8649 232.095 50.8649C231.803 50.8649 231.609 50.8649 231.511 50.8649V52.4391ZM231.511 55.2923C231.609 55.2923 231.803 55.2923 231.998 55.2923C232.581 55.2923 233.164 54.9971 233.164 54.3084C233.164 53.6197 232.581 53.423 231.998 53.423H231.511V55.2923Z" fill="white"/>
    <path d="M237.248 54.702L236.859 56.3745H235.498L237.346 49.7827H239.096L240.943 56.3745H239.485L238.998 54.702H237.248ZM238.804 53.6197L238.415 52.2423C238.318 51.8488 238.221 51.3569 238.123 50.9633C238.026 51.3569 237.929 51.8488 237.832 52.2423L237.443 53.6197H238.804Z" fill="white"/>
    <path d="M243.374 49.7827V52.3407H245.61V49.7827H246.972V56.3745H245.61V53.6197H243.374V56.3745H242.013V49.7827H243.374Z" fill="white"/>
    <path d="M249.889 49.7827V52.0456C250.083 52.0456 250.375 51.9472 250.569 51.9472C251.833 51.9472 252.903 52.6359 252.903 54.1116C252.903 54.702 252.708 55.1939 252.417 55.5874C251.833 56.2761 250.861 56.4729 249.889 56.4729C249.208 56.4729 248.722 56.3745 248.43 56.3745V49.7827H249.889ZM249.889 55.2923C250.083 55.2923 250.18 55.2923 250.375 55.2923C251.055 55.2923 251.541 54.8987 251.541 54.21C251.541 53.423 251.055 53.1278 250.375 53.1278C250.18 53.1278 249.986 53.1278 249.889 53.1278V55.2923Z" fill="white"/>
    </g>
    <defs>
    <clipPath id="clip0">
    <rect width="253" height="67" fill="white"/>
    </clipPath>
    </defs>
</svg>