<svg width="259" height="69" viewBox="0 0 259 69" fill="none" xmlns="http://www.w3.org/2000/svg">
    <path d="M21.9658 44.88C22.8353 44.88 23.0286 46.8229 21.5793 46.8229C14.1399 46.8229 14.7196 59.5486 8.14963 59.5486C0.323693 59.4514 1.00001 49.64 1.00001 49.64H8.5361C8.5361 49.64 8.24625 54.8857 10.6617 54.8857C13.3669 54.8857 15.0094 44.88 21.9658 44.88Z" fill="#231F20"/>
    <path d="M20.6132 27.1028C20.3233 28.3657 19.647 31.4743 19.5504 32.8343C19.2606 34.68 18.4876 38.08 18.1012 39.6343C18.0045 40.12 18.2944 40.5086 18.7775 40.5086C19.7436 40.5086 21.1929 40.5086 21.8692 40.5086C21.676 41.9657 21.676 45.1714 21.676 45.1714C21.676 45.1714 21.5793 50.1257 21.8692 51.8743C22.159 53.6228 24.3812 54.1086 28.6324 53.2343C32.1105 52.5543 43.3181 44.3943 45.1538 44.2C45.1538 44.2 60.9023 33.2228 47.376 19.6228C33.8496 6.02285 20.6132 27.1028 20.6132 27.1028Z" fill="white" stroke="#231F20" stroke-miterlimit="10"/>
    <path d="M15.7823 27.5886C16.8451 27.9771 18.1978 28.4629 19.3572 28.6571C20.7098 28.8514 22.7387 28.2686 23.9947 27.88C27.956 26.9086 30.6613 23.3143 34.7192 23.6057C36.4583 23.7029 38.0041 24.2857 38.9703 25.84C39.9365 27.2971 39.7432 29.5314 39.55 30.6C40.9026 30.0171 42.835 29.7257 44.2842 30.3086C45.7335 30.8914 46.8929 32.4457 46.9895 34.0971C47.0861 35.8457 46.2165 37.5943 45.0572 38.8571C44.8639 39.0514 44.6707 39.3429 44.5741 39.6343C44.4775 39.9257 44.4775 40.3143 44.4775 40.7029C44.5741 42.2571 44.6707 43.7143 44.7673 45.2686C47.5692 43.8114 50.3711 42.7429 53.5594 42.4514C53.1729 41.0914 53.0763 39.2457 53.0763 37.8857C55.9748 38.76 58.2936 38.8571 61.2887 39.3429C60.8057 37.6914 60.709 37.2057 60.1293 35.5543C58.9699 32.0571 58.3902 28.6571 58.7767 24.9657C58.8733 23.8 58.7767 22.9257 58.8733 21.6629C59.0666 18.8457 58.3902 15.7371 56.8444 13.3086C55.2985 10.88 53.2696 8.54857 50.9508 6.89715C49.5015 5.82857 48.5354 3.98286 48.2455 2.13715C46.5064 3.20572 43.9944 3.49715 41.9654 3.30286C39.9365 3.10857 37.9075 3.20572 35.8786 3.30286C32.5936 3.4 29.5019 5.05143 27.0865 7.18857C24.6711 9.32572 22.932 12.24 21.4827 15.2514C21.0963 16.0286 20.7098 16.9029 20.1301 17.68C18.9707 19.1371 17.2316 20.4971 15.5891 21.3714C14.1399 22.1486 9.88873 24.8686 9.88873 24.8686C9.88873 24.8686 14.3331 27.0057 15.7823 27.5886Z" fill="#231F20"/>
    <path d="M62.1583 56.0514C60.8056 56.3428 25.9271 64.6971 21.0963 67.1257C22.159 62.4628 28.9222 51.8743 43.8011 44.7828C46.603 43.4228 53.9459 41.9657 53.9459 41.9657C53.9459 41.9657 61.0955 54.7886 62.1583 56.0514Z" fill="white" stroke="#231F20" stroke-miterlimit="10"/>
    <path d="M27.5696 42.6457C28.4391 42.6457 28.6323 44.5886 27.1831 44.5886C19.7436 44.5886 20.3233 57.3143 13.7534 57.3143C5.92745 57.3143 6.60377 47.5029 6.60377 47.5029H14.1399C14.1399 47.5029 13.85 52.7486 16.2654 52.7486C18.9707 52.6514 20.7098 42.6457 27.5696 42.6457Z" fill="#EC1C24"/>
    <path d="M26.2169 24.8686C25.9271 26.1314 25.2508 29.24 25.1542 30.6C24.8643 32.4457 24.0914 35.8457 23.7049 37.4C23.6083 37.8857 23.8981 38.2743 24.3812 38.2743C25.3474 38.2743 26.7966 38.2743 27.473 38.2743C27.2797 39.7314 27.2797 42.9371 27.2797 42.9371C27.2797 42.9371 27.1831 47.8914 27.473 49.64C27.7628 51.3886 29.985 51.8743 34.2361 51C37.7143 50.32 48.9218 42.16 50.7575 41.9657C50.7575 41.9657 66.506 30.9886 52.9797 17.3886C39.4534 3.78856 26.2169 24.8686 26.2169 24.8686Z" fill="white" stroke="#EC1C24" stroke-miterlimit="10"/>
    <path d="M21.4827 25.3543C22.5455 25.7429 23.8981 26.2286 25.0575 26.4229C26.4102 26.6171 28.4391 26.0343 29.6951 25.6457C33.6564 24.6743 36.3617 21.08 40.4196 21.3714C42.1587 21.4686 43.7045 22.0514 44.6707 23.6057C45.6369 25.0629 45.4436 27.2971 45.2504 28.3657C46.603 27.7829 48.5353 27.4914 49.9846 28.0743C51.4338 28.6571 52.5932 30.2114 52.6899 31.8629C52.7865 33.6114 51.9169 35.36 50.7575 36.6229C50.5643 36.8171 50.3711 37.1086 50.2744 37.4C50.1778 37.6914 50.1778 38.08 50.1778 38.4686C50.2745 40.0229 50.3711 41.48 50.4677 43.0343C53.2696 41.5771 56.0714 40.5086 59.2598 40.2171C58.8733 38.8571 58.7767 37.0114 58.7767 35.6514C61.6752 36.5257 63.994 36.6229 66.9891 37.1086C66.506 35.4571 66.4094 34.9714 65.8297 33.32C64.6703 29.8229 64.0906 26.4229 64.4771 22.7314C64.5737 21.5657 64.4771 20.6914 64.5737 19.4286C64.7669 16.6114 64.0906 13.5029 62.5447 11.0743C60.9989 8.64571 58.9699 6.31429 56.6511 4.66286C55.1053 3.69143 54.1391 1.84571 53.9459 0C52.2068 1.06857 49.6947 1.36 47.6658 1.16571C45.6369 0.971429 43.5113 1.06857 41.579 1.06857C38.294 1.16571 35.2023 2.81714 32.7869 4.95429C30.3714 7.09143 28.6323 10.0057 27.1831 13.0171C26.7966 13.7943 26.4102 14.6686 25.8305 15.4457C24.6711 16.9029 22.932 18.2629 21.2895 19.1371C19.8402 19.9143 15.5891 22.6343 15.5891 22.6343C15.5891 22.6343 19.9369 24.8686 21.4827 25.3543Z" fill="#EC1C24"/>
    <path d="M67.762 53.8172C66.4094 54.1086 31.5308 62.4629 26.7 64.8914C27.7628 60.2286 34.5259 49.64 49.4049 42.5486C52.2068 41.1886 59.5496 39.7314 59.5496 39.7314C59.5496 39.7314 66.6993 52.5543 67.762 53.8172Z" fill="white" stroke="#EC1C24" stroke-miterlimit="10"/>
    <path d="M80.7087 12.24C82.7376 11.8514 85.0564 11.6571 87.6651 11.6571C92.3993 11.6571 95.7809 12.92 98.003 15.0571C100.322 17.2914 101.578 20.4971 101.578 24.8686C101.578 29.3371 100.225 33.0286 97.9064 35.5543C95.491 38.08 91.5297 39.5371 86.6023 39.5371C84.1869 39.5371 82.2545 39.44 80.6121 39.2457V12.24H80.7087ZM83.9936 36.5257C84.8632 36.6228 86.0226 36.72 87.2786 36.72C94.3316 36.72 98.0996 32.4457 98.0996 25.0628C98.0996 18.5543 94.7181 14.4743 87.7617 14.4743C86.0226 14.4743 84.7666 14.6686 83.897 14.8628V36.5257H83.9936Z" fill="#231F20"/>
    <path d="M107.955 29.92C108.051 34.8743 111.046 36.9143 114.718 36.9143C117.326 36.9143 118.872 36.4286 120.128 35.8457L120.805 38.4686C119.549 39.0514 117.326 39.7314 114.235 39.7314C108.148 39.7314 104.573 35.6514 104.573 29.6286C104.573 23.6057 108.051 18.8457 113.848 18.8457C120.321 18.8457 121.964 24.5771 121.964 28.2686C121.964 29.0457 121.964 29.5314 121.867 29.92H107.955ZM118.389 27.2971C118.389 25.0628 117.423 21.3714 113.462 21.3714C109.79 21.3714 108.244 24.7714 107.955 27.2971H118.389Z" fill="#231F20"/>
    <path d="M131.819 13.9886V18.8457H137.519V21.6629H131.819V32.64C131.819 35.1657 132.495 36.6229 134.331 36.6229C135.2 36.6229 136.746 36.5257 137.229 36.3314L137.423 39.1486C136.746 39.44 134.814 39.6343 133.558 39.6343C132.012 39.6343 130.756 39.0514 129.983 38.08C129.114 36.9143 128.727 35.1657 128.727 32.7372V21.76H125.925V18.9429H128.727V14.0857H131.819V13.9886Z" fill="#231F20"/>
    <path d="M143.703 29.8229C143.799 34.7771 146.891 36.8172 150.466 36.8172C153.074 36.8172 154.62 36.3314 155.973 35.7486L156.649 38.3714C155.393 38.9543 153.171 39.6343 149.983 39.6343C143.896 39.6343 140.224 35.4571 140.224 29.4343C140.224 23.3143 143.703 18.5543 149.5 18.5543C155.973 18.5543 157.712 24.2857 157.712 28.0743C157.712 28.8514 157.712 29.3371 157.615 29.8229H143.703ZM154.234 27.2C154.234 24.8686 153.268 21.2743 149.21 21.2743C145.538 21.2743 143.992 24.6743 143.703 27.2H154.234Z" fill="#231F20"/>
    <path d="M177.035 38.5657C176.069 39.0514 174.04 39.7314 171.335 39.7314C165.345 39.7314 161.48 35.5543 161.48 29.4343C161.48 23.2171 165.635 18.6514 172.108 18.6514C174.233 18.6514 176.166 19.2343 177.132 19.72L176.359 22.5371C175.49 22.0514 174.137 21.5657 172.205 21.5657C167.664 21.5657 165.152 25.0629 165.152 29.24C165.152 33.9029 168.147 36.8171 172.011 36.8171C174.04 36.8171 175.393 36.3314 176.456 35.8457L177.035 38.5657Z" fill="#231F20"/>
    <path d="M186.407 13.9886V18.8457H198.871V21.6629H186.407V32.64C186.407 35.1657 187.083 36.6229 188.919 36.6229C189.789 36.6229 191.335 36.5257 191.818 36.3314L192.011 39.1486C191.335 39.44 189.402 39.6343 188.146 39.6343C186.6 39.6343 185.344 39.0514 184.571 38.08C183.702 36.9143 183.315 35.1657 183.315 32.7372V21.76H180.514V18.9429H183.315V14.0857H186.407V13.9886Z" fill="#231F20"/>
    <path d="M199.547 13.1143C199.547 14.3771 198.871 15.3486 197.615 15.3486C196.552 15.3486 195.779 14.3771 195.779 13.1143C195.779 11.8514 196.552 10.88 197.615 10.88C198.871 10.88 199.547 11.8514 199.547 13.1143ZM196.262 39.2457V18.8457H199.257V39.2457H196.262Z" fill="#231F20"/>
    <path d="M206.6 19.04L210.271 30.4057C210.851 32.2514 211.431 34 211.817 35.6514H211.914C212.3 34 212.88 32.3486 213.46 30.4057L217.131 19.04H220.706L213.363 39.2457H210.078L202.929 19.04H206.6Z" fill="#231F20"/>
    <path d="M225.923 29.8229C226.02 34.7771 229.112 36.8172 232.783 36.8172C235.392 36.8172 236.938 36.3314 238.29 35.7486L238.967 38.3714C237.711 38.9543 235.488 39.6343 232.3 39.6343C226.213 39.6343 222.542 35.4571 222.542 29.4343C222.542 23.3143 226.117 18.5543 231.914 18.5543C238.483 18.5543 240.126 24.2857 240.126 28.0743C240.126 28.8514 240.126 29.3371 240.029 29.8229H225.923ZM236.551 27.2C236.551 24.8686 235.585 21.2743 231.527 21.2743C227.856 21.2743 226.31 24.6743 226.02 27.2H236.551Z" fill="#231F20"/>
    <path d="M245.44 35.5543C246.599 36.2343 248.532 37.0114 250.464 37.0114C253.169 37.0114 254.425 35.7486 254.425 34C254.425 32.2514 253.362 31.28 250.657 30.3086C246.889 28.9486 245.15 27.0057 245.15 24.5771C245.15 21.2743 247.855 18.6514 252.3 18.6514C254.425 18.6514 256.261 19.2343 257.324 19.9143L256.454 22.6343C255.681 22.1486 254.135 21.4686 252.203 21.4686C249.981 21.4686 248.821 22.7314 248.821 24.1886C248.821 25.84 249.981 26.6171 252.686 27.6857C256.261 28.9486 258.097 30.6971 258.097 33.7086C258.097 37.3029 255.198 39.8286 250.464 39.8286C248.242 39.8286 246.116 39.2457 244.667 38.3714L245.44 35.5543Z" fill="#231F20"/>
    <path d="M84.67 49.1543V50.32H82.0613V51.4857C82.2545 51.4857 82.5444 51.4857 82.7376 51.4857C83.3173 51.4857 83.9936 51.68 84.3801 51.9714C84.7666 52.2628 85.0564 52.8457 85.0564 53.5257C85.0564 54.1086 84.8632 54.6914 84.4767 54.9828C83.897 55.5657 82.9309 55.76 82.0613 55.76C81.385 55.76 80.9019 55.6628 80.6121 55.6628V49.1543H84.67ZM82.0613 54.5943C82.2545 54.5943 82.3512 54.5943 82.5444 54.5943C82.8342 54.5943 83.2207 54.4971 83.4139 54.3028C83.6072 54.1086 83.7038 53.8171 83.7038 53.5257C83.7038 53.2343 83.6072 52.9428 83.4139 52.7486C83.2207 52.5543 82.8342 52.4571 82.5444 52.4571C82.3512 52.4571 82.2545 52.4571 82.0613 52.4571V54.5943Z" fill="#EC1C24"/>
    <path d="M87.7617 49.1543V51.68H88.438C88.6312 50.1257 89.5974 49.0571 91.0467 49.0571C92.6891 49.0571 93.6553 50.5143 93.6553 52.36C93.6553 54.4971 92.5925 55.76 90.95 55.76C89.5008 55.76 88.5346 54.5943 88.438 52.9428H87.7617V55.6628H86.4091V49.1543H87.7617ZM92.3027 52.36C92.3027 51.1943 91.8196 50.1257 91.0467 50.1257C90.1771 50.1257 89.7906 51.0971 89.7906 52.36C89.7906 53.6228 90.2737 54.5943 91.0467 54.5943C91.8196 54.5943 92.3027 53.6228 92.3027 52.36Z" fill="#EC1C24"/>
    <path d="M94.8147 49.2514C95.2012 49.1543 95.7809 49.1543 96.6504 49.1543C97.52 49.1543 98.0997 49.3486 98.4861 49.64C98.8726 49.9314 99.1624 50.5143 99.1624 51.1943C99.1624 51.8743 98.9692 52.36 98.5827 52.7486C98.0997 53.2343 97.4233 53.4286 96.6504 53.4286C96.4572 53.4286 96.3606 53.4286 96.1673 53.4286V55.76H94.8147V49.2514ZM96.1673 52.1657C96.2639 52.1657 96.4572 52.1657 96.6504 52.1657C97.3267 52.1657 97.8098 51.7771 97.8098 51.0971C97.8098 50.5143 97.4233 50.1257 96.747 50.1257C96.4572 50.1257 96.2639 50.1257 96.1673 50.1257V52.1657Z" fill="#EC1C24"/>
    <path d="M105.732 52.36C105.732 54.4971 104.573 55.76 102.834 55.76C101.095 55.76 100.032 54.3028 100.032 52.4571C100.032 50.5143 101.191 49.0571 102.93 49.0571C104.766 49.0571 105.732 50.5143 105.732 52.36ZM101.481 52.4571C101.481 53.72 102.061 54.6914 102.93 54.6914C103.8 54.6914 104.38 53.72 104.38 52.4571C104.38 51.2914 103.897 50.2228 102.93 50.2228C101.964 50.2228 101.481 51.1943 101.481 52.4571Z" fill="#EC1C24"/>
    <path d="M110.08 49.1543L111.529 51.8743H111.626V49.1543H112.882V51.8743H112.979L114.428 49.1543H115.974L113.945 52.0686C114.718 52.1657 115.104 52.8457 115.394 53.6228C115.587 54.3028 115.78 54.9828 115.974 55.6628H114.621C114.428 55.1771 114.331 54.6914 114.235 54.2057C114.041 53.5257 113.752 52.9428 113.075 52.9428H112.882V55.6628H111.626V52.9428H111.433C110.756 52.9428 110.467 53.5257 110.273 54.2057C110.177 54.6914 110.08 55.1771 109.887 55.6628H108.534C108.824 54.9828 108.921 54.3028 109.114 53.72C109.404 52.8457 109.79 52.2628 110.563 52.0686L108.534 49.1543H110.08Z" fill="#EC1C24"/>
    <path d="M118.293 49.1543L119.162 51.4857C119.355 51.9714 119.452 52.36 119.549 52.7486C119.645 52.4571 119.742 52.0686 119.838 51.4857L120.515 49.1543H121.964L120.805 52.36C120.418 53.3314 120.128 54.4 119.645 54.9828C119.259 55.4686 118.776 55.8571 118.099 55.8571C117.809 55.8571 117.616 55.8571 117.423 55.76L117.52 54.5943C117.616 54.5943 117.809 54.6914 118.003 54.6914C118.389 54.6914 118.679 54.4 118.776 54.1086C118.776 54.0114 118.776 53.9143 118.776 53.8171L116.747 49.2514H118.293V49.1543Z" fill="#EC1C24"/>
    <path d="M122.833 49.2514C123.22 49.1543 123.8 49.1543 124.669 49.1543C125.539 49.1543 126.118 49.3486 126.505 49.64C126.891 49.9314 127.181 50.5143 127.181 51.1943C127.181 51.8743 126.988 52.36 126.602 52.7486C126.118 53.2343 125.442 53.4286 124.669 53.4286C124.476 53.4286 124.379 53.4286 124.186 53.4286V55.76H122.833V49.2514ZM124.186 52.1657C124.283 52.1657 124.476 52.1657 124.669 52.1657C125.346 52.1657 125.829 51.7771 125.829 51.0971C125.829 50.5143 125.442 50.1257 124.766 50.1257C124.476 50.1257 124.283 50.1257 124.186 50.1257V52.1657Z" fill="#EC1C24"/>
    <path d="M129.597 49.1543V51.68H131.819V49.1543H133.171V55.6628H131.819V52.9428H129.597V55.6628H128.244V49.1543H129.597Z" fill="#EC1C24"/>
    <path d="M136.07 54.0114L135.683 55.6628H134.331L136.167 49.1543H137.906L139.741 55.6628H138.292L137.809 54.0114H136.07ZM137.616 52.9428L137.229 51.4857C137.133 51.0971 137.036 50.6114 136.939 50.2228C136.843 50.6114 136.746 51.0971 136.65 51.4857L136.263 52.8457H137.616V52.9428Z" fill="#EC1C24"/>
    <path d="M145.442 49.1543V55.6628H144.089V50.32H142.736V51.8743C142.736 53.5257 142.543 54.8857 141.674 55.4686C141.384 55.6628 140.997 55.76 140.514 55.76L140.321 54.5943C140.611 54.5943 140.804 54.4 140.997 54.2057C141.384 53.8171 141.48 52.9428 141.48 51.9714V49.1543H145.442Z" fill="#EC1C24"/>
    <path d="M148.34 49.1543V55.6628H146.988V49.1543H148.34Z" fill="#EC1C24"/>
    <path d="M154.234 55.4686C154.041 55.5657 153.461 55.76 152.688 55.76C150.659 55.76 149.596 54.3028 149.596 52.4571C149.596 50.2228 151.046 48.96 152.881 48.96C153.558 48.96 154.137 49.0571 154.33 49.2514L154.041 50.4171C153.751 50.32 153.364 50.1257 152.881 50.1257C151.818 50.1257 150.949 50.8057 150.949 52.2628C150.949 53.5257 151.625 54.4 152.881 54.4C153.268 54.4 153.751 54.3028 154.041 54.2057L154.234 55.4686Z" fill="#EC1C24"/>
    <path d="M156.746 50.4171H155.103V49.1543H159.644V50.4171H158.002V55.76H156.649V50.4171H156.746Z" fill="#EC1C24"/>
    <path d="M164.862 55.4686C164.668 55.5657 164.089 55.76 163.316 55.76C161.287 55.76 160.224 54.3028 160.224 52.4571C160.224 50.2228 161.673 48.96 163.509 48.96C164.185 48.96 164.765 49.0571 164.958 49.2514L164.668 50.4171C164.379 50.32 163.992 50.1257 163.509 50.1257C162.446 50.1257 161.577 50.8057 161.577 52.2628C161.577 53.5257 162.253 54.4 163.509 54.4C163.896 54.4 164.379 54.3028 164.668 54.2057L164.862 55.4686Z" fill="#EC1C24"/>
    <path d="M167.47 49.1543V51.3886C167.664 51.3886 167.953 51.2914 168.147 51.2914C169.403 51.2914 170.465 51.9714 170.465 53.4286C170.465 54.0114 170.272 54.4971 169.982 54.8857C169.403 55.5657 168.437 55.76 167.47 55.76C166.794 55.76 166.311 55.6628 166.021 55.6628V49.1543H167.47ZM167.47 54.5943C167.664 54.5943 167.76 54.5943 167.953 54.5943C168.63 54.5943 169.113 54.2057 169.113 53.5257C169.113 52.7486 168.63 52.4571 167.953 52.4571C167.76 52.4571 167.567 52.4571 167.47 52.4571V54.5943Z" fill="#EC1C24"/>
    <path d="M173.074 49.1543V51.8743H173.171L174.813 49.1543H176.456L174.427 52.0686C175.2 52.2628 175.489 52.8457 175.779 53.6228C175.973 54.3028 176.166 54.9828 176.456 55.6628H175.006C174.813 55.1771 174.717 54.6914 174.523 54.2057C174.33 53.4286 174.04 52.9428 173.364 52.9428H173.074V55.6628H171.721V49.1543H173.074Z" fill="#EC1C24"/>
    <path d="M178.678 49.1543V51.0971C178.678 52.1657 178.678 53.1371 178.581 54.0114C178.871 53.2343 179.258 52.36 179.644 51.68L180.9 49.1543H182.253V55.6628H180.997V53.72C180.997 52.7486 180.997 51.7771 181.093 51C180.803 51.7771 180.417 52.6514 180.127 53.3314L178.968 55.6628H177.422V49.1543H178.678Z" fill="#EC1C24"/>
    <path d="M186.987 55.6628L186.407 54.4971C186.214 54.0114 186.021 53.72 185.924 53.3314C185.827 53.72 185.634 54.0114 185.441 54.4971L184.958 55.6628H183.412L185.151 52.36L183.509 49.1543H185.055L185.538 50.32C185.731 50.7086 185.827 51 186.021 51.3886C186.117 51 186.311 50.7086 186.407 50.32L186.89 49.1543H188.436L186.794 52.36L188.533 55.6628H186.987Z" fill="#EC1C24"/>
    <path d="M191.818 49.2514C192.204 49.1543 192.784 49.1543 193.653 49.1543C194.523 49.1543 195.103 49.3486 195.489 49.64C195.876 49.9314 196.165 50.5143 196.165 51.1943C196.165 51.8743 195.972 52.36 195.586 52.7486C195.103 53.2343 194.426 53.4286 193.653 53.4286C193.46 53.4286 193.364 53.4286 193.17 53.4286V55.76H191.818V49.2514ZM193.074 52.1657C193.17 52.1657 193.364 52.1657 193.557 52.1657C194.233 52.1657 194.716 51.7771 194.716 51.0971C194.716 50.5143 194.33 50.1257 193.653 50.1257C193.364 50.1257 193.17 50.1257 193.074 50.1257V52.1657Z" fill="#EC1C24"/>
    <path d="M202.639 52.36C202.639 54.4971 201.479 55.76 199.74 55.76C198.001 55.76 196.938 54.3028 196.938 52.4571C196.938 50.5143 198.098 49.0571 199.837 49.0571C201.673 49.0571 202.639 50.5143 202.639 52.36ZM198.388 52.4571C198.388 53.72 198.967 54.6914 199.837 54.6914C200.706 54.6914 201.286 53.72 201.286 52.4571C201.286 51.2914 200.803 50.2228 199.837 50.2228C198.871 50.2228 198.388 51.1943 198.388 52.4571Z" fill="#EC1C24"/>
    <path d="M203.605 49.5428C203.991 49.2514 204.668 49.0571 205.441 49.0571C206.697 49.0571 207.47 49.7371 207.47 50.7086C207.47 51.4857 206.986 52.0686 206.31 52.2628C207.083 52.36 207.663 52.9428 207.663 53.8171C207.663 55.2743 206.31 55.76 205.247 55.76C204.668 55.76 203.991 55.5657 203.508 55.2743L203.798 54.1086C204.088 54.3028 204.668 54.4971 205.247 54.4971C205.924 54.4971 206.31 54.2057 206.31 53.6228C206.31 52.9428 205.634 52.7486 205.054 52.7486H204.474V51.68H205.054C205.634 51.68 206.117 51.3886 206.117 50.9028C206.117 50.5143 205.827 50.2228 205.247 50.2228C204.764 50.2228 204.281 50.4171 203.895 50.6114L203.605 49.5428Z" fill="#EC1C24"/>
    <path d="M213.267 55.4686C213.073 55.5657 212.494 55.76 211.721 55.76C209.692 55.76 208.629 54.3028 208.629 52.4571C208.629 50.2228 210.078 48.96 211.914 48.96C212.59 48.96 213.17 49.0571 213.363 49.2514L213.073 50.4171C212.783 50.32 212.397 50.1257 211.914 50.1257C210.851 50.1257 209.982 50.8057 209.982 52.2628C209.982 53.5257 210.658 54.4 211.914 54.4C212.3 54.4 212.783 54.3028 213.073 54.2057L213.267 55.4686Z" fill="#EC1C24"/>
    <path d="M219.16 49.1543V55.6628H217.808V50.32H216.455V51.8743C216.455 53.5257 216.262 54.8857 215.392 55.4686C215.102 55.6628 214.716 55.76 214.233 55.76L214.04 54.5943C214.329 54.5943 214.523 54.4 214.716 54.2057C215.102 53.8171 215.199 52.9428 215.199 51.9714V49.1543H219.16Z" fill="#EC1C24"/>
    <path d="M222.059 49.1543V55.6628H220.706V49.1543H222.059Z" fill="#EC1C24"/>
    <path d="M228.242 49.1543V54.4971H228.822L228.725 57.3143H227.759L227.662 55.6628H224.184V57.3143H223.121L223.025 54.4971H223.508C223.701 54.0114 223.894 53.5257 224.088 53.04C224.281 52.36 224.281 51.68 224.281 50.9028V49.1543H228.242ZM225.633 51.1943C225.633 51.9714 225.537 52.6514 225.344 53.3314C225.247 53.72 225.054 54.1086 224.957 54.4H226.89V50.2228H225.537V51.1943H225.633Z" fill="#EC1C24"/>
    <path d="M230.851 49.1543L231.72 51.4857C231.914 51.9714 232.01 52.36 232.107 52.7486C232.203 52.4571 232.3 52.0686 232.397 51.4857L233.073 49.1543H234.522L233.363 52.36C232.976 53.3314 232.686 54.4 232.203 54.9828C231.817 55.4686 231.334 55.8571 230.658 55.8571C230.368 55.8571 230.174 55.8571 229.981 55.76L230.078 54.5943C230.174 54.5943 230.368 54.6914 230.561 54.6914C230.947 54.6914 231.237 54.4 231.334 54.1086C231.334 54.0114 231.334 53.9143 231.334 53.8171L229.305 49.2514H230.851V49.1543Z" fill="#EC1C24"/>
    <path d="M235.392 49.2514C235.778 49.1543 236.455 49.1543 237.131 49.1543C237.904 49.1543 238.484 49.2514 238.87 49.5428C239.256 49.8343 239.546 50.2228 239.546 50.8057C239.546 51.3886 239.256 51.8743 238.58 52.1657C239.256 52.36 239.74 52.9428 239.74 53.72C239.74 54.3028 239.45 54.7886 239.16 55.08C238.773 55.4686 238 55.6628 236.841 55.6628C236.165 55.6628 235.682 55.5657 235.392 55.5657V49.2514ZM236.744 51.7771H237.227C237.904 51.7771 238.29 51.4857 238.29 51C238.29 50.5143 237.904 50.2228 237.324 50.2228C237.034 50.2228 236.841 50.2228 236.744 50.2228V51.7771ZM236.744 54.5943C236.841 54.5943 237.034 54.5943 237.227 54.5943C237.807 54.5943 238.387 54.3028 238.387 53.6228C238.387 52.9428 237.807 52.7486 237.227 52.7486H236.744V54.5943Z" fill="#EC1C24"/>
    <path d="M242.445 54.0114L242.058 55.6628H240.609L242.445 49.1543H244.184L246.02 55.6628H244.57L244.087 54.0114H242.445ZM243.894 52.9428L243.508 51.4857C243.411 51.0971 243.314 50.6114 243.218 50.2228C243.121 50.6114 243.024 51.0971 242.928 51.4857L242.541 52.8457H243.894V52.9428Z" fill="#EC1C24"/>
    <path d="M248.532 49.1543V51.68H250.754V49.1543H252.106V55.6628H250.754V52.9428H248.532V55.6628H247.179V49.1543H248.532Z" fill="#EC1C24"/>
    <path d="M254.908 49.1543V51.3886C255.102 51.3886 255.391 51.2914 255.585 51.2914C256.841 51.2914 257.903 51.9714 257.903 53.4286C257.903 54.0114 257.71 54.4971 257.42 54.8857C256.841 55.5657 255.874 55.76 254.908 55.76C254.232 55.76 253.749 55.6628 253.459 55.6628V49.1543H254.908ZM254.908 54.5943C255.102 54.5943 255.198 54.5943 255.391 54.5943C256.068 54.5943 256.551 54.2057 256.551 53.5257C256.551 52.7486 256.068 52.4571 255.391 52.4571C255.198 52.4571 255.005 52.4571 254.908 52.4571V54.5943Z" fill="#EC1C24"/>
</svg>